LeagueSpartan-Regular.ufo
<glyph name="exclam" format="1">
  <advance width="349"/>
  <unicode hex="21"/>
  <outline>
    <contour>
      <point x="174" y="214" type="line" smooth="yes"/>
      <point x="111" y="214"/>
      <point x="60" y="163"/>
      <point x="60" y="99" type="curve" smooth="yes"/>
      <point x="60" y="36"/>
      <point x="111" y="-15"/>
      <point x="174" y="-15" type="curve" smooth="yes"/>
      <point x="238" y="-15"/>
      <point x="289" y="36"/>
      <point x="289" y="99" type="curve" smooth="yes"/>
      <point x="289" y="163"/>
      <point x="238" y="214"/>
      <point x="174" y="214" type="curve" smooth="yes"/>
    </contour>
    <contour>
      <point x="239" y="270" type="line"/>
      <point x="110" y="270" type="line"/>
      <point x="86" y="860" type="line"/>
      <point x="263" y="860" type="line"/>
    </contour>
  </outline>
</glyph>
<glyph name="numbersign" format="1">
  <advance width="833"/>
  <unicode hex="23"/>
  <outline>
    <contour>
      <point x="113" y="0" type="line"/>
      <point x="237" y="0" type="line"/>
      <point x="453" y="825" type="line"/>
      <point x="329" y="825" type="line"/>
    </contour>
    <contour>
      <point x="345" y="0" type="line"/>
      <point x="469" y="0" type="line"/>
      <point x="685" y="825" type="line"/>
      <point x="561" y="825" type="line"/>
    </contour>
    <contour>
      <point x="165" y="607" type="line"/>
      <point x="133" y="486" type="line"/>
      <point x="698" y="486" type="line"/>
      <point x="730" y="607" type="line"/>
    </contour>
    <contour>
      <point x="100" y="340" type="line"/>
      <point x="68" y="219" type="line"/>
      <point x="633" y="219" type="line"/>
      <point x="665" y="340" type="line"/>
    </contour>
  </outline>
</glyph>
<glyph name="dollar" format="1">
  <advance width="672"/>
  <unicode hex="24"/>
  <outline>
    <contour>
      <point x="363" y="825" type="line" smooth="yes"/>
      <point x="235" y="825"/>
      <point x="103" y="728"/>
      <point x="103" y="582" type="curve" smooth="yes"/>
      <point x="103" y="499"/>
      <point x="159" y="425"/>
      <point x="255" y="377" type="curve" smooth="yes"/>
      <point x="349" y="330"/>
      <point x="434" y="305"/>
      <point x="434" y="245" type="curve" smooth="yes"/>
      <point x="434" y="171"/>
      <point x="359" y="167"/>
      <point x="320" y="167" type="curve" smooth="yes"/>
      <point x="231" y="167"/>
      <point x="124" y="257"/>
      <point x="124" y="257" type="curve"/>
      <point x="33" y="105" type="line"/>
      <point x="33" y="105"/>
      <point x="146" y="0"/>
      <point x="333" y="0" type="curve" smooth="yes"/>
      <point x="489" y="0"/>
      <point x="633" y="66"/>
      <point x="633" y="256" type="curve" smooth="yes"/>
      <point x="633" y="361"/>
      <point x="535" y="436"/>
      <point x="446" y="474" type="curve" smooth="yes"/>
      <point x="355" y="512"/>
      <point x="280" y="542"/>
      <point x="280" y="589" type="curve" smooth="yes"/>
      <point x="280" y="633"/>
      <point x="312" y="660"/>
      <point x="375" y="660" type="curve" smooth="yes"/>
      <point x="457" y="660"/>
      <point x="537" y="606"/>
      <point x="537" y="606" type="curve"/>
      <point x="610" y="750" type="line"/>
      <point x="610" y="750"/>
      <point x="508" y="825"/>
      <point x="363" y="825" type="curve" smooth="yes"/>
    </contour>
    <contour>
      <point x="415" y="15" type="line"/>
      <point x="307" y="15" type="line"/>
      <point x="307" y="-138" type="line"/>
      <point x="415" y="-138" type="line"/>
    </contour>
    <contour>
      <point x="415" y="963" type="line"/>
      <point x="307" y="963" type="line"/>
      <point x="307" y="810" type="line"/>
      <point x="415" y="810" type="line"/>
    </contour>
  </outline>
</glyph>
<glyph name="comma" format="1">
  <advance width="349"/>
  <unicode hex="2C"/>
  <outline>
    <contour>
      <point x="174" y="214" type="line" smooth="yes"/>
      <point x="238" y="214"/>
      <point x="289" y="163"/>
      <point x="289" y="99" type="curve" smooth="yes"/>
      <point x="289" y="-22"/>
      <point x="203" y="-120"/>
      <point x="121" y="-188" type="curve"/>
      <point x="70" y="-146" type="line"/>
      <point x="70" y="-146"/>
      <point x="130" y="-89"/>
      <point x="146" y="-6" type="curve"/>
      <point x="97" y="6"/>
      <point x="60" y="46"/>
      <point x="60" y="99" type="curve" smooth="yes"/>
      <point x="60" y="163"/>
      <point x="111" y="214"/>
      <point x="174" y="214" type="curve" smooth="yes"/>
    </contour>
  </outline>
</glyph>
<glyph name="two" format="1">
  <advance width="833"/>
  <unicode hex="32"/>
  <outline>
    <contour>
      <point x="404" y="681" type="line" smooth="yes"/>
      <point x="514" y="681"/>
      <point x="521" y="580"/>
      <point x="521" y="550" type="curve" smooth="yes"/>
      <point x="521" y="445"/>
      <point x="320" y="267"/>
      <point x="79" y="55" type="curve"/>
      <point x="79" y="0" type="line"/>
      <point x="739" y="0" type="line"/>
      <point x="739" y="165" type="line"/>
      <point x="456" y="165" type="line"/>
      <point x="552" y="258"/>
      <point x="724" y="397"/>
      <point x="724" y="550" type="curve" smooth="yes"/>
      <point x="724" y="654"/>
      <point x="687" y="840"/>
      <point x="404" y="840" type="curve" smooth="yes"/>
      <point x="180" y="840"/>
      <point x="100" y="600"/>
      <point x="100" y="600" type="curve"/>
      <point x="263" y="521" type="line"/>
      <point x="263" y="521"/>
      <point x="314" y="681"/>
      <point x="404" y="681" type="curve" smooth="yes"/>
    </contour>
  </outline>
</glyph>
<glyph name="three" format="1">
  <advance width="655"/>
  <unicode hex="33"/>
  <outline>
    <contour>
      <point x="191" y="273" type="line"/>
      <point x="191" y="273"/>
      <point x="202" y="147"/>
      <point x="326" y="147" type="curve"/>
      <point x="395" y="147"/>
      <point x="445" y="186"/>
      <point x="445" y="256" type="curve" smooth="yes"/>
      <point x="445" y="327"/>
      <point x="392" y="377"/>
      <point x="326" y="377" type="curve"/>
      <point x="306" y="377"/>
      <point x="290" y="371"/>
      <point x="290" y="371" type="curve"/>
      <point x="290" y="494" type="line"/>
      <point x="290" y="494"/>
      <point x="308" y="494"/>
      <point x="327" y="494" type="curve"/>
      <point x="497" y="494"/>
      <point x="633" y="416"/>
      <point x="633" y="256" type="curve" smooth="yes"/>
      <point x="633" y="98"/>
      <point x="504" y="-15"/>
      <point x="327" y="-15" type="curve"/>
      <point x="73" y="-15"/>
      <point x="17" y="188"/>
      <point x="17" y="188" type="curve"/>
    </contour>
    <contour>
      <point x="57" y="659" type="line"/>
      <point x="57" y="659"/>
      <point x="99" y="840"/>
      <point x="330" y="840" type="curve" smooth="yes"/>
      <point x="487" y="840"/>
      <point x="601" y="740"/>
      <point x="601" y="600" type="curve" smooth="yes"/>
      <point x="601" y="458"/>
      <point x="480" y="389"/>
      <point x="330" y="389" type="curve" smooth="yes"/>
      <point x="313" y="389"/>
      <point x="297" y="394"/>
      <point x="297" y="394" type="curve"/>
      <point x="297" y="494" type="line"/>
      <point x="327" y="494" type="line"/>
      <point x="385" y="494"/>
      <point x="434" y="537"/>
      <point x="434" y="600" type="curve" smooth="yes"/>
      <point x="434" y="662"/>
      <point x="389" y="696"/>
      <point x="328" y="696" type="curve" smooth="yes"/>
      <point x="218" y="696"/>
      <point x="201" y="589"/>
      <point x="201" y="589" type="curve"/>
    </contour>
  </outline>
</glyph>
<glyph name="five" format="1">
  <advance width="674"/>
  <unicode hex="35"/>
  <outline>
    <contour>
      <point x="115" y="440" type="line"/>
      <point x="303" y="440" type="line"/>
      <point x="365" y="825" type="line"/>
      <point x="177" y="825" type="line"/>
    </contour>
    <contour>
      <point x="204" y="660" type="line"/>
      <point x="598" y="660" type="line"/>
      <point x="598" y="825" type="line"/>
      <point x="204" y="825" type="line"/>
    </contour>
    <contour>
      <point x="51" y="164" type="line"/>
      <point x="82" y="80"/>
      <point x="169" y="-15"/>
      <point x="345" y="-15" type="curve" smooth="yes"/>
      <point x="522" y="-15"/>
      <point x="651" y="98"/>
      <point x="651" y="256" type="curve" smooth="yes"/>
      <point x="651" y="485"/>
      <point x="499" y="545"/>
      <point x="343" y="546" type="curve" smooth="yes"/>
      <point x="212" y="546"/>
      <point x="115" y="440"/>
      <point x="115" y="440" type="curve"/>
      <point x="108" y="381" type="line"/>
      <point x="133" y="392"/>
      <point x="180" y="407"/>
      <point x="249" y="407" type="curve" smooth="yes"/>
      <point x="356" y="407"/>
      <point x="463" y="371"/>
      <point x="463" y="262" type="curve" smooth="yes"/>
      <point x="463" y="192"/>
      <point x="413" y="142"/>
      <point x="345" y="142" type="curve" smooth="yes"/>
      <point x="259" y="142"/>
      <point x="215" y="185"/>
      <point x="200" y="236" type="curve"/>
    </contour>
  </outline>
</glyph>
<glyph name="equal" format="1">
  <advance width="633"/>
  <unicode hex="3D"/>
  <outline>
    <contour>
      <point x="573" y="458" type="line"/>
      <point x="573" y="611" type="line"/>
      <point x="60" y="611" type="line"/>
      <point x="60" y="458" type="line"/>
    </contour>
    <contour>
      <point x="573" y="218" type="line"/>
      <point x="573" y="371" type="line"/>
      <point x="60" y="371" type="line"/>
      <point x="60" y="218" type="line"/>
    </contour>
  </outline>
</glyph>
<glyph name="A" format="1">
  <advance width="830"/>
  <unicode hex="41"/>
  <outline>
    <contour>
      <point x="-5" y="0" type="line"/>
      <point x="197" y="0" type="line"/>
      <point x="258" y="165" type="line"/>
      <point x="572" y="165" type="line"/>
      <point x="633" y="0" type="line"/>
      <point x="835" y="0" type="line"/>
      <point x="502" y="825" type="line"/>
      <point x="328" y="825" type="line"/>
    </contour>
    <contour>
      <point x="414" y="570" type="line"/>
      <point x="416" y="570" type="line"/>
      <point x="508" y="330" type="line"/>
      <point x="322" y="330" type="line"/>
    </contour>
  </outline>
</glyph>
<glyph name="K" format="1">
  <advance width="787"/>
  <unicode hex="4B"/>
  <outline>
    <contour>
      <point x="759" y="825" type="line"/>
      <point x="531" y="825" type="line"/>
      <point x="248" y="488" type="line"/>
      <point x="248" y="825" type="line"/>
      <point x="60" y="825" type="line"/>
      <point x="60" y="0" type="line"/>
      <point x="248" y="0" type="line"/>
      <point x="248" y="350" type="line"/>
      <point x="552" y="0" type="line"/>
      <point x="811" y="0" type="line"/>
      <point x="427" y="434" type="line"/>
    </contour>
  </outline>
</glyph>
<glyph name="M" format="1">
  <advance width="954"/>
  <unicode hex="4D"/>
  <outline>
    <contour>
      <point x="16" y="0" type="line"/>
      <point x="204" y="0" type="line"/>
      <point x="248" y="479" type="line"/>
      <point x="250" y="479" type="line"/>
      <point x="420" y="5" type="line"/>
      <point x="477" y="5" type="line"/>
      <point x="477" y="349" type="line"/>
      <point x="294" y="825" type="line"/>
      <point x="94" y="825" type="line"/>
    </contour>
    <contour>
      <point x="860" y="825" type="line"/>
      <point x="660" y="825" type="line"/>
      <point x="477" y="349" type="line"/>
      <point x="477" y="5" type="line"/>
      <point x="534" y="5" type="line"/>
      <point x="704" y="479" type="line"/>
      <point x="706" y="479" type="line"/>
      <point x="750" y="0" type="line"/>
      <point x="938" y="0" type="line"/>
    </contour>
  </outline>
</glyph>
<glyph name="N" format="1">
  <advance width="826"/>
  <unicode hex="4E"/>
  <outline>
    <contour>
      <point x="578" y="0" type="line"/>
      <point x="766" y="0" type="line"/>
      <point x="766" y="825" type="line"/>
      <point x="578" y="825" type="line"/>
      <point x="578" y="313" type="line"/>
      <point x="576" y="313" type="line"/>
      <point x="248" y="825" type="line"/>
      <point x="60" y="825" type="line"/>
      <point x="60" y="0" type="line"/>
      <point x="248" y="0" type="line"/>
      <point x="248" y="512" type="line"/>
      <point x="250" y="512" type="line"/>
    </contour>
  </outline>
</glyph>
<glyph name="Q" format="1">
  <advance width="867"/>
  <unicode hex="51"/>
  <outline>
    <contour>
      <point x="896" y="142" type="line"/>
      <point x="856" y="155"/>
      <point x="819" y="169"/>
      <point x="785" y="185" type="curve"/>
      <point x="823" y="250"/>
      <point x="844" y="328"/>
      <point x="844" y="413" type="curve" smooth="yes"/>
      <point x="844" y="654"/>
      <point x="663" y="840"/>
      <point x="434" y="840" type="curve" smooth="yes"/>
      <point x="207" y="840"/>
      <point x="23" y="654"/>
      <point x="23" y="413" type="curve" smooth="yes"/>
      <point x="23" y="172"/>
      <point x="190" y="-15"/>
      <point x="434" y="-15" type="curve" smooth="yes"/>
      <point x="517" y="-15"/>
      <point x="593" y="8"/>
      <point x="656" y="49" type="curve"/>
      <point x="702" y="21"/>
      <point x="754" y="-5"/>
      <point x="813" y="-26" type="curve"/>
    </contour>
    <contour>
      <point x="226" y="413" type="line" smooth="yes"/>
      <point x="226" y="536"/>
      <point x="289" y="651"/>
      <point x="434" y="651" type="curve" smooth="yes"/>
      <point x="580" y="651"/>
      <point x="641" y="536"/>
      <point x="641" y="413" type="curve" smooth="yes"/>
      <point x="641" y="365"/>
      <point x="632" y="319"/>
      <point x="613" y="280" type="curve"/>
      <point x="521" y="343"/>
      <point x="473" y="396"/>
      <point x="473" y="396" type="curve"/>
      <point x="388" y="298" type="line"/>
      <point x="406" y="276"/>
      <point x="439" y="232"/>
      <point x="489" y="181" type="curve"/>
      <point x="472" y="177"/>
      <point x="454" y="175"/>
      <point x="434" y="175" type="curve" smooth="yes"/>
      <point x="280" y="175"/>
      <point x="226" y="290"/>
      <point x="226" y="413" type="curve" smooth="yes"/>
    </contour>
  </outline>
</glyph>
<glyph name="c" format="1">
  <advance width="498"/>
  <unicode hex="63"/>
  <outline>
    <contour>
      <point x="333" y="383" type="line" smooth="yes"/>
      <point x="386" y="383"/>
      <point x="419" y="359"/>
      <point x="419" y="359" type="curve"/>
      <point x="479" y="480" type="line"/>
      <point x="479" y="480"/>
      <point x="421" y="528"/>
      <point x="307" y="528" type="curve" smooth="yes"/>
      <point x="158" y="528"/>
      <point x="23" y="406"/>
      <point x="23" y="255" type="curve"/>
      <point x="24" y="105"/>
      <point x="159" y="-15"/>
      <point x="307" y="-15" type="curve" smooth="yes"/>
      <point x="421" y="-15"/>
      <point x="479" y="31"/>
      <point x="479" y="31" type="curve"/>
      <point x="419" y="154" type="line"/>
      <point x="419" y="154"/>
      <point x="386" y="130"/>
      <point x="333" y="130" type="curve" smooth="yes"/>
      <point x="266" y="130"/>
      <point x="211" y="186"/>
      <point x="211" y="257" type="curve" smooth="yes"/>
      <point x="211" y="327"/>
      <point x="266" y="383"/>
      <point x="333" y="383" type="curve" smooth="yes"/>
    </contour>
  </outline>
</glyph>
<glyph name="o" format="1">
  <advance width="661"/>
  <unicode hex="6F"/>
  <outline>
    <contour>
      <point x="23" y="256" type="line"/>
      <point x="23" y="416"/>
      <point x="159" y="528"/>
      <point x="332" y="528" type="curve" smooth="yes"/>
      <point x="502" y="528"/>
      <point x="638" y="416"/>
      <point x="638" y="256" type="curve" smooth="yes"/>
      <point x="638" y="98"/>
      <point x="509" y="-15"/>
      <point x="332" y="-15" type="curve" smooth="yes"/>
      <point x="147" y="-15"/>
      <point x="23" y="98"/>
      <point x="23" y="256" type="curve"/>
    </contour>
    <contour>
      <point x="211" y="256" type="line" smooth="yes"/>
      <point x="211" y="186"/>
      <point x="259" y="136"/>
      <point x="331" y="136" type="curve" smooth="yes"/>
      <point x="400" y="136"/>
      <point x="450" y="186"/>
      <point x="450" y="256" type="curve" smooth="yes"/>
      <point x="450" y="327"/>
      <point x="397" y="377"/>
      <point x="331" y="377" type="curve" smooth="yes"/>
      <point x="264" y="377"/>
      <point x="211" y="327"/>
      <point x="211" y="256" type="curve" smooth="yes"/>
    </contour>
  </outline>
</glyph>
<glyph name="asciitilde" format="1">
  <advance width="694"/>
  <unicode hex="7E"/>
  <outline>
    <contour>
      <point x="541" y="521" type="line"/>
      <point x="541" y="521"/>
      <point x="515" y="443"/>
      <point x="457" y="443" type="curve" smooth="yes"/>
      <point x="435" y="443"/>
      <point x="410" y="458"/>
      <point x="386" y="474" type="curve" smooth="yes"/>
      <point x="345" y="500"/>
      <point x="304" y="528"/>
      <point x="237" y="528" type="curve" smooth="yes"/>
      <point x="125" y="528"/>
      <point x="60" y="391"/>
      <point x="60" y="391" type="curve"/>
      <point x="153" y="310" type="line"/>
      <point x="153" y="310"/>
      <point x="179" y="388"/>
      <point x="237" y="388" type="curve" smooth="yes"/>
      <point x="261" y="388"/>
      <point x="286" y="372"/>
      <point x="310" y="356" type="curve" smooth="yes"/>
      <point x="351" y="329"/>
      <point x="393" y="303"/>
      <point x="457" y="303" type="curve" smooth="yes"/>
      <point x="569" y="303"/>
      <point x="634" y="440"/>
      <point x="634" y="440" type="curve"/>
    </contour>
  </outline>
</glyph>
<glyph name="macron" format="1">
  <advance width="628"/>
  <unicode hex="AF"/>
  <outline>
    <contour>
      <point x="558" y="634" type="line"/>
      <point x="558" y="754" type="line"/>
      <point x="70" y="754" type="line"/>
      <point x="70" y="634" type="line"/>
    </contour>
  </outline>
</glyph>
<glyph name="onehalf" format="1">
  <advance width="945"/>
  <unicode hex="BD"/>
  <outline>
    <contour>
      <point x="101" y="0" type="line"/>
      <point x="219" y="0" type="line"/>
      <point x="699" y="825" type="line"/>
      <point x="581" y="825" type="line"/>
    </contour>
    <component base="one" xOffset="43" yOffset="345" xScale="0.58" yScale="0.58"/>
    <component base="two" xOffset="461" xScale="0.57" yScale="0.57"/>
  </outline>
</glyph>
<glyph name="threequarters" format="1">
  <advance width="977"/>
  <unicode hex="BE"/>
  <outline>
    <contour>
      <point x="202" y="0" type="line"/>
      <point x="320" y="0" type="line"/>
      <point x="800" y="825" type="line"/>
      <point x="682" y="825" type="line"/>
    </contour>
    <component base="three" xOffset="26" yOffset="351" xScale="0.57" yScale="0.57"/>
    <component base="four" xOffset="500" xScale="0.58" yScale="0.58"/>
  </outline>
</glyph>
<glyph name="multiply" format="1">
  <advance width="633"/>
  <unicode hex="D7"/>
  <outline>
    <contour>
      <point x="164" y="675" type="line"/>
      <point x="56" y="568" type="line"/>
      <point x="470" y="154" type="line"/>
      <point x="577" y="262" type="line"/>
    </contour>
    <contour>
      <point x="577" y="567" type="line"/>
      <point x="469" y="675" type="line"/>
      <point x="56" y="263" type="line"/>
      <point x="164" y="154" type="line"/>
    </contour>
  </outline>
</glyph>
<glyph name="oslash" format="1">
  <advance width="661"/>
  <unicode hex="F8"/>
  <outline>
    <contour>
      <point x="623" y="538" type="line"/>
      <point x="668" y="484" type="line"/>
      <point x="583" y="415" type="line"/>
      <point x="618" y="372"/>
      <point x="638" y="317"/>
      <point x="638" y="256" type="curve" smooth="yes"/>
      <point x="638" y="98"/>
      <point x="509" y="-15"/>
      <point x="332" y="-15" type="curve" smooth="yes"/>
      <point x="250" y="-15"/>
      <point x="179" y="7"/>
      <point x="127" y="46" type="curve"/>
      <point x="38" y="-26" type="line"/>
      <point x="-7" y="28" type="line"/>
      <point x="76" y="95" type="line"/>
      <point x="42" y="139"/>
      <point x="23" y="194"/>
      <point x="23" y="256" type="curve" smooth="yes"/>
      <point x="23" y="416"/>
      <point x="159" y="528"/>
      <point x="332" y="528" type="curve" smooth="yes"/>
      <point x="409" y="528"/>
      <point x="479" y="505"/>
      <point x="533" y="465" type="curve"/>
    </contour>
    <contour>
      <point x="211" y="256" type="line" smooth="yes"/>
      <point x="211" y="239"/>
      <point x="213" y="224"/>
      <point x="218" y="210" type="curve"/>
      <point x="399" y="356" type="line"/>
      <point x="380" y="369"/>
      <point x="356" y="377"/>
      <point x="331" y="377" type="curve" smooth="yes"/>
      <point x="264" y="377"/>
      <point x="211" y="327"/>
      <point x="211" y="256" type="curve" smooth="yes"/>
    </contour>
    <contour>
      <point x="331" y="136" type="line" smooth="yes"/>
      <point x="400" y="136"/>
      <point x="450" y="186"/>
      <point x="450" y="256" type="curve" smooth="yes"/>
      <point x="450" y="272"/>
      <point x="447" y="287"/>
      <point x="442" y="301" type="curve"/>
      <point x="262" y="155" type="line"/>
      <point x="281" y="143"/>
      <point x="304" y="136"/>
      <point x="331" y="136" type="curve" smooth="yes"/>
    </contour>
  </outline>
</glyph>
<glyph name="thorn" format="1">
  <advance width="273"/>
  <unicode hex="FE"/>
  <outline>
    <contour>
      <point x="437" y="256" type="line"/>
      <point x="437" y="106"/>
      <point x="332" y="-15"/>
      <point x="182" y="-15" type="curve" smooth="yes"/>
      <point x="112" y="-15"/>
      <point x="52" y="16"/>
      <point x="14" y="58" type="curve"/>
      <point x="12" y="58" type="line"/>
      <point x="12" y="-260" type="line"/>
      <point x="-163" y="-260" type="line"/>
      <point x="-163" y="860" type="line"/>
      <point x="14" y="860" type="line"/>
      <point x="14" y="464" type="line"/>
      <point x="56" y="505"/>
      <point x="113" y="528"/>
      <point x="182" y="528" type="curve" smooth="yes"/>
      <point x="332" y="528"/>
      <point x="437" y="406"/>
      <point x="437" y="256" type="curve" smooth="yes"/>
    </contour>
    <contour>
      <point x="249" y="256" type="line"/>
      <point x="249" y="327"/>
      <point x="196" y="377"/>
      <point x="129" y="377" type="curve" smooth="yes"/>
      <point x="63" y="377"/>
      <point x="10" y="327"/>
      <point x="10" y="256" type="curve" smooth="yes"/>
      <point x="10" y="186"/>
      <point x="60" y="136"/>
      <point x="129" y="136" type="curve" smooth="yes"/>
      <point x="201" y="136"/>
      <point x="249" y="186"/>
      <point x="249" y="256" type="curve" smooth="yes"/>
    </contour>
  </outline>
</glyph>
<glyph name="ring" format="1">
  <advance width="462"/>
  <unicode hex="2DA"/>
  <outline>
    <contour>
      <point x="70" y="733" type="line" smooth="yes"/>
      <point x="70" y="816"/>
      <point x="141" y="875"/>
      <point x="231" y="875" type="curve" smooth="yes"/>
      <point x="322" y="875"/>
      <point x="392" y="816"/>
      <point x="392" y="733" type="curve" smooth="yes"/>
      <point x="392" y="649"/>
      <point x="325" y="590"/>
      <point x="231" y="590" type="curve" smooth="yes"/>
      <point x="135" y="590"/>
      <point x="70" y="649"/>
      <point x="70" y="733" type="curve" smooth="yes"/>
    </contour>
    <contour>
      <point x="170" y="733" type="line"/>
      <point x="170" y="698"/>
      <point x="195" y="669"/>
      <point x="231" y="669" type="curve" smooth="yes"/>
      <point x="266" y="669"/>
      <point x="292" y="698"/>
      <point x="292" y="733" type="curve" smooth="yes"/>
      <point x="292" y="767"/>
      <point x="265" y="795"/>
      <point x="231" y="795" type="curve" smooth="yes"/>
      <point x="198" y="795"/>
      <point x="170" y="767"/>
      <point x="170" y="733" type="curve"/>
    </contour>
  </outline>
</glyph>
<glyph name="notequal" format="1">
  <advance width="633"/>
  <unicode hex="2260"/>
  <outline>
    <contour>
      <point x="35" y="70" type="line"/>
      <point x="153" y="70" type="line"/>
      <point x="551" y="755" type="line"/>
      <point x="433" y="755" type="line"/>
    </contour>
    <component base="equal"/>
  </outline>
</glyph>
<glyph name="fi" format="1">
  <advance width="672"/>
  <unicode hex="FB01"/>
  <outline>
    <contour>
      <point x="612" y="0" type="line"/>
      <point x="435" y="0" type="line"/>
      <point x="435" y="378" type="line"/>
      <point x="267" y="378" type="line"/>
      <point x="267" y="0" type="line"/>
      <point x="90" y="0" type="line"/>
      <point x="90" y="378" type="line"/>
      <point x="16" y="378" type="line"/>
      <point x="16" y="513" type="line"/>
      <point x="90" y="513" type="line"/>
      <point x="90" y="622" type="line" smooth="yes"/>
      <point x="91" y="772"/>
      <point x="161" y="875"/>
      <point x="301" y="875" type="curve" smooth="yes"/>
      <point x="439" y="875"/>
      <point x="532" y="792"/>
      <point x="532" y="792" type="curve"/>
      <point x="470" y="667" type="line"/>
      <point x="470" y="667"/>
      <point x="406" y="719"/>
      <point x="353" y="719" type="curve" smooth="yes"/>
      <point x="283" y="719"/>
      <point x="267" y="688"/>
      <point x="267" y="617" type="curve" smooth="yes"/>
      <point x="267" y="513" type="line"/>
      <point x="612" y="513" type="line"/>
    </contour>
  </outline>
</glyph>
<glyph name="fl" format="1">
  <advance width="672"/>
  <unicode hex="FB02"/>
  <outline>
    <contour>
      <point x="16" y="513" type="line"/>
      <point x="90" y="513" type="line"/>
      <point x="90" y="622" type="line" smooth="yes"/>
      <point x="91" y="772"/>
      <point x="163" y="875"/>
      <point x="291" y="875" type="curve" smooth="yes"/>
      <point x="349" y="875"/>
      <point x="392" y="857"/>
      <point x="416" y="843" type="curve"/>
      <point x="375" y="704" type="line"/>
      <point x="375" y="704"/>
      <point x="351" y="718"/>
      <point x="322" y="718" type="curve" smooth="yes"/>
      <point x="277" y="718"/>
      <point x="267" y="688"/>
      <point x="267" y="617" type="curve" smooth="yes"/>
      <point x="267" y="513" type="line"/>
      <point x="385" y="513" type="line"/>
      <point x="385" y="378" type="line"/>
      <point x="267" y="378" type="line"/>
      <point x="267" y="0" type="line"/>
      <point x="90" y="0" type="line"/>
      <point x="90" y="378" type="line"/>
      <point x="16" y="378" type="line"/>
    </contour>
    <component base="l" xOffset="375"/>
  </outline>
</glyph>
<glyph name="Q.5" format="1">
  <advance width="920"/>
  <outline>
    <contour>
      <point x="250" y="413" type="line" smooth="yes"/>
      <point x="250" y="536"/>
      <point x="313" y="651"/>
      <point x="458" y="651" type="curve" smooth="yes"/>
      <point x="604" y="651"/>
      <point x="665" y="536"/>
      <point x="665" y="413" type="curve" smooth="yes"/>
      <point x="665" y="290"/>
      <point x="608" y="175"/>
      <point x="458" y="175" type="curve" smooth="yes"/>
      <point x="304" y="175"/>
      <point x="250" y="290"/>
      <point x="250" y="413" type="curve" smooth="yes"/>
    </contour>
    <contour>
      <point x="47" y="413" type="line" smooth="yes"/>
      <point x="47" y="172"/>
      <point x="214" y="-15"/>
      <point x="458" y="-15" type="curve" smooth="yes"/>
      <point x="695" y="-15"/>
      <point x="868" y="172"/>
      <point x="868" y="413" type="curve" smooth="yes"/>
      <point x="868" y="654"/>
      <point x="687" y="840"/>
      <point x="458" y="840" type="curve" smooth="yes"/>
      <point x="231" y="840"/>
      <point x="47" y="654"/>
      <point x="47" y="413" type="curve" smooth="yes"/>
    </contour>
    <contour>
      <point x="926" y="154" type="line"/>
      <point x="737" y="185"/>
      <point x="499" y="403"/>
      <point x="499" y="403" type="curve"/>
      <point x="408" y="293" type="line"/>
      <point x="451" y="241"/>
      <point x="608" y="39"/>
      <point x="837" y="-26" type="curve"/>
    </contour>
  </outline>
</glyph>
<glyph name="_0000" format="1">
  <advance width="0"/>
  <outline>
    <contour>
      <point x="15" y="256" type="line" smooth="yes"/>
      <point x="15" y="406"/>
      <point x="120" y="528"/>
      <point x="270" y="528" type="curve" smooth="yes"/>
      <point x="339" y="528"/>
      <point x="396" y="505"/>
      <point x="438" y="464" type="curve"/>
      <point x="438" y="513" type="line"/>
      <point x="615" y="513" type="line"/>
      <point x="615" y="0" type="line"/>
      <point x="440" y="0" type="line"/>
      <point x="440" y="58" type="line"/>
      <point x="438" y="58" type="line"/>
      <point x="400" y="16"/>
      <point x="340" y="-15"/>
      <point x="270" y="-15" type="curve" smooth="yes"/>
      <point x="120" y="-15"/>
      <point x="15" y="106"/>
      <point x="15" y="256" type="curve" smooth="yes"/>
    </contour>
    <contour>
      <point x="203" y="256" type="line" smooth="yes"/>
      <point x="203" y="186"/>
      <point x="251" y="136"/>
      <point x="323" y="136" type="curve" smooth="yes"/>
      <point x="392" y="136"/>
      <point x="442" y="186"/>
      <point x="442" y="256" type="curve" smooth="yes"/>
      <point x="442" y="327"/>
      <point x="389" y="377"/>
      <point x="323" y="377" type="curve" smooth="yes"/>
      <point x="256" y="377"/>
      <point x="203" y="327"/>
      <point x="203" y="256" type="curve" smooth="yes"/>
    </contour>
    <contour>
      <point x="-721" y="256" type="line" smooth="yes"/>
      <point x="-721" y="406"/>
      <point x="-616" y="528"/>
      <point x="-466" y="528" type="curve" smooth="yes"/>
      <point x="-397" y="528"/>
      <point x="-340" y="505"/>
      <point x="-298" y="464" type="curve"/>
      <point x="-298" y="513" type="line"/>
      <point x="-121" y="513" type="line"/>
      <point x="-121" y="0" type="line"/>
      <point x="-296" y="0" type="line"/>
      <point x="-296" y="58" type="line"/>
      <point x="-298" y="58" type="line"/>
      <point x="-336" y="16"/>
      <point x="-396" y="-15"/>
      <point x="-466" y="-15" type="curve" smooth="yes"/>
      <point x="-616" y="-15"/>
      <point x="-721" y="106"/>
      <point x="-721" y="256" type="curve" smooth="yes"/>
    </contour>
    <contour>
      <point x="-533" y="256" type="line" smooth="yes"/>
      <point x="-533" y="186"/>
      <point x="-485" y="136"/>
      <point x="-413" y="136" type="curve" smooth="yes"/>
      <point x="-344" y="136"/>
      <point x="-294" y="186"/>
      <point x="-294" y="256" type="curve" smooth="yes"/>
      <point x="-294" y="327"/>
      <point x="-347" y="377"/>
      <point x="-413" y="377" type="curve" smooth="yes"/>
      <point x="-480" y="377"/>
      <point x="-533" y="327"/>
      <point x="-533" y="256" type="curve" smooth="yes"/>
    </contour>
    <contour>
      <point x="-1214" y="434" type="line"/>
      <point x="-1384" y="434" type="line"/>
      <point x="-1428" y="448" type="line"/>
      <point x="-1428" y="528" type="line"/>
      <point x="-1214" y="528" type="line"/>
    </contour>
    <contour>
      <point x="-841" y="434" type="line"/>
      <point x="-1012" y="434" type="line"/>
      <point x="-1055" y="448" type="line"/>
      <point x="-1055" y="528" type="line"/>
      <point x="-841" y="528" type="line"/>
    </contour>
    <contour>
      <point x="-1012" y="94" type="line"/>
      <point x="-841" y="94" type="line"/>
      <point x="-801" y="80" type="line"/>
      <point x="-801" y="0" type="line"/>
      <point x="-1012" y="0" type="line"/>
    </contour>
    <contour>
      <point x="-841" y="513" type="line"/>
      <point x="-841" y="0" type="line"/>
      <point x="-1012" y="0" type="line"/>
      <point x="-1012" y="513" type="line"/>
    </contour>
    <contour>
      <point x="888" y="269" type="line" smooth="yes"/>
      <point x="888" y="168"/>
      <point x="915" y="129"/>
      <point x="989" y="129" type="curve" smooth="yes"/>
      <point x="1063" y="129"/>
      <point x="1090" y="168"/>
      <point x="1090" y="269" type="curve" smooth="yes"/>
      <point x="1090" y="528" type="line"/>
      <point x="1260" y="528" type="line"/>
      <point x="1260" y="226" type="line" smooth="yes"/>
      <point x="1260" y="54"/>
      <point x="1181" y="-15"/>
      <point x="989" y="-15" type="curve" smooth="yes"/>
      <point x="797" y="-15"/>
      <point x="718" y="54"/>
      <point x="718" y="226" type="curve" smooth="yes"/>
      <point x="718" y="528" type="line"/>
      <point x="888" y="528" type="line"/>
    </contour>
    <contour>
      <point x="-1214" y="269" type="line" smooth="yes"/>
      <point x="-1214" y="168"/>
      <point x="-1187" y="129"/>
      <point x="-1113" y="129" type="curve" smooth="yes"/>
      <point x="-1021" y="129"/>
      <point x="-1012" y="209"/>
      <point x="-1012" y="252" type="curve"/>
      <point x="-1012" y="165"/>
      <point x="-1012" y="74"/>
      <point x="-1012" y="74" type="curve"/>
      <point x="-1012" y="74"/>
      <point x="-1075" y="-15"/>
      <point x="-1173" y="-15" type="curve" smooth="yes"/>
      <point x="-1309" y="-15"/>
      <point x="-1384" y="71"/>
      <point x="-1384" y="205" type="curve" smooth="yes"/>
      <point x="-1384" y="528" type="line"/>
      <point x="-1214" y="528" type="line"/>
    </contour>
    <contour>
      <point x="-292" y="94" type="line"/>
      <point x="-121" y="94" type="line"/>
      <point x="-81" y="80" type="line"/>
      <point x="-81" y="0" type="line"/>
      <point x="-292" y="0" type="line"/>
    </contour>
  </outline>
</glyph>
<glyph name="a.2" format="1">
  <advance width="683"/>
  <outline>
    <contour>
      <point x="15" y="256" type="line" smooth="yes"/>
      <point x="15" y="406"/>
      <point x="120" y="528"/>
      <point x="270" y="528" type="curve" smooth="yes"/>
      <point x="339" y="528"/>
      <point x="396" y="505"/>
      <point x="438" y="464" type="curve"/>
      <point x="438" y="513" type="line"/>
      <point x="615" y="513" type="line"/>
      <point x="615" y="0" type="line"/>
      <point x="440" y="0" type="line"/>
      <point x="440" y="58" type="line"/>
      <point x="438" y="58" type="line"/>
      <point x="400" y="16"/>
      <point x="340" y="-15"/>
      <point x="270" y="-15" type="curve" smooth="yes"/>
      <point x="120" y="-15"/>
      <point x="15" y="106"/>
      <point x="15" y="256" type="curve" smooth="yes"/>
    </contour>
    <contour>
      <point x="203" y="256" type="line" smooth="yes"/>
      <point x="203" y="186"/>
      <point x="251" y="136"/>
      <point x="323" y="136" type="curve" smooth="yes"/>
      <point x="392" y="136"/>
      <point x="442" y="186"/>
      <point x="442" y="256" type="curve" smooth="yes"/>
      <point x="442" y="327"/>
      <point x="389" y="377"/>
      <point x="323" y="377" type="curve" smooth="yes"/>
      <point x="256" y="377"/>
      <point x="203" y="327"/>
      <point x="203" y="256" type="curve" smooth="yes"/>
    </contour>
    <contour>
      <point x="-721" y="256" type="line" smooth="yes"/>
      <point x="-721" y="406"/>
      <point x="-616" y="528"/>
      <point x="-466" y="528" type="curve" smooth="yes"/>
      <point x="-397" y="528"/>
      <point x="-340" y="505"/>
      <point x="-298" y="464" type="curve"/>
      <point x="-298" y="513" type="line"/>
      <point x="-121" y="513" type="line"/>
      <point x="-121" y="0" type="line"/>
      <point x="-296" y="0" type="line"/>
      <point x="-296" y="58" type="line"/>
      <point x="-298" y="58" type="line"/>
      <point x="-336" y="16"/>
      <point x="-396" y="-15"/>
      <point x="-466" y="-15" type="curve" smooth="yes"/>
      <point x="-616" y="-15"/>
      <point x="-721" y="106"/>
      <point x="-721" y="256" type="curve" smooth="yes"/>
    </contour>
    <contour>
      <point x="-533" y="256" type="line" smooth="yes"/>
      <point x="-533" y="186"/>
      <point x="-485" y="136"/>
      <point x="-413" y="136" type="curve" smooth="yes"/>
      <point x="-344" y="136"/>
      <point x="-294" y="186"/>
      <point x="-294" y="256" type="curve" smooth="yes"/>
      <point x="-294" y="327"/>
      <point x="-347" y="377"/>
      <point x="-413" y="377" type="curve" smooth="yes"/>
      <point x="-480" y="377"/>
      <point x="-533" y="327"/>
      <point x="-533" y="256" type="curve" smooth="yes"/>
    </contour>
    <contour>
      <point x="-1214" y="434" type="line"/>
      <point x="-1384" y="434" type="line"/>
      <point x="-1428" y="448" type="line"/>
      <point x="-1428" y="528" type="line"/>
      <point x="-1214" y="528" type="line"/>
    </contour>
    <contour>
      <point x="-841" y="434" type="line"/>
      <point x="-1012" y="434" type="line"/>
      <point x="-1055" y="448" type="line"/>
      <point x="-1055" y="528" type="line"/>
      <point x="-841" y="528" type="line"/>
    </contour>
    <contour>
      <point x="-1012" y="94" type="line"/>
      <point x="-841" y="94" type="line"/>
      <point x="-801" y="80" type="line"/>
      <point x="-801" y="0" type="line"/>
      <point x="-1012" y="0" type="line"/>
    </contour>
    <contour>
      <point x="-841" y="513" type="line"/>
      <point x="-841" y="0" type="line"/>
      <point x="-1012" y="0" type="line"/>
      <point x="-1012" y="513" type="line"/>
    </contour>
    <contour>
      <point x="888" y="269" type="line" smooth="yes"/>
      <point x="888" y="168"/>
      <point x="915" y="129"/>
      <point x="989" y="129" type="curve" smooth="yes"/>
      <point x="1063" y="129"/>
      <point x="1090" y="168"/>
      <point x="1090" y="269" type="curve" smooth="yes"/>
      <point x="1090" y="528" type="line"/>
      <point x="1260" y="528" type="line"/>
      <point x="1260" y="226" type="line" smooth="yes"/>
      <point x="1260" y="54"/>
      <point x="1181" y="-15"/>
      <point x="989" y="-15" type="curve" smooth="yes"/>
      <point x="797" y="-15"/>
      <point x="718" y="54"/>
      <point x="718" y="226" type="curve" smooth="yes"/>
      <point x="718" y="528" type="line"/>
      <point x="888" y="528" type="line"/>
    </contour>
    <contour>
      <point x="-1214" y="269" type="line" smooth="yes"/>
      <point x="-1214" y="168"/>
      <point x="-1187" y="129"/>
      <point x="-1113" y="129" type="curve" smooth="yes"/>
      <point x="-1021" y="129"/>
      <point x="-1012" y="209"/>
      <point x="-1012" y="252" type="curve" smooth="yes"/>
      <point x="-1012" y="165"/>
      <point x="-1012" y="74"/>
      <point x="-1012" y="74" type="curve"/>
      <point x="-1012" y="74"/>
      <point x="-1075" y="-15"/>
      <point x="-1173" y="-15" type="curve" smooth="yes"/>
      <point x="-1309" y="-15"/>
      <point x="-1384" y="71"/>
      <point x="-1384" y="205" type="curve" smooth="yes"/>
      <point x="-1384" y="528" type="line"/>
      <point x="-1214" y="528" type="line"/>
    </contour>
    <contour>
      <point x="-292" y="94" type="line"/>
      <point x="-121" y="94" type="line"/>
      <point x="-81" y="80" type="line"/>
      <point x="-81" y="0" type="line"/>
      <point x="-292" y="0" type="line"/>
    </contour>
    <contour>
      <point x="1461" y="416" type="line"/>
      <point x="1461" y="416"/>
      <point x="1530" y="453"/>
      <point x="1628" y="453" type="curve" smooth="yes"/>
      <point x="1707" y="453"/>
      <point x="1828" y="420"/>
      <point x="1828" y="299" type="curve" smooth="yes"/>
      <point x="1828" y="200"/>
      <point x="1828" y="4"/>
      <point x="1828" y="4" type="curve"/>
    </contour>
    <contour>
      <point x="1756" y="249" type="line"/>
      <point x="1756" y="249"/>
      <point x="1711" y="301"/>
      <point x="1583" y="301" type="curve" smooth="yes"/>
      <point x="1467" y="301"/>
      <point x="1400" y="228"/>
      <point x="1400" y="136" type="curve" smooth="yes"/>
      <point x="1400" y="43"/>
      <point x="1485" y="-15"/>
      <point x="1583" y="-15" type="curve" smooth="yes"/>
      <point x="1695" y="-15"/>
      <point x="1756" y="77"/>
      <point x="1756" y="77" type="curve"/>
      <point x="1756" y="77"/>
      <point x="1756" y="234"/>
      <point x="1756" y="249" type="curve"/>
    </contour>
    <contour>
      <point x="1740" y="299" type="line"/>
      <point x="1740" y="200"/>
      <point x="1740" y="4"/>
      <point x="1740" y="4" type="curve"/>
      <point x="1916" y="4" type="line"/>
      <point x="1916" y="4"/>
      <point x="1916" y="200"/>
      <point x="1916" y="299" type="curve"/>
    </contour>
    <contour>
      <point x="1628" y="387" type="line"/>
      <point x="1679" y="387"/>
      <point x="1740" y="355"/>
      <point x="1740" y="299" type="curve"/>
      <point x="1916" y="299" type="line"/>
      <point x="1916" y="485"/>
      <point x="1735" y="528"/>
      <point x="1628" y="528" type="curve"/>
    </contour>
    <contour>
      <point x="1489" y="357" type="line"/>
      <point x="1489" y="357"/>
      <point x="1536" y="387"/>
      <point x="1628" y="387" type="curve"/>
      <point x="1628" y="528" type="line"/>
      <point x="1497" y="528"/>
      <point x="1433" y="478"/>
      <point x="1433" y="478" type="curve"/>
    </contour>
    <contour>
      <point x="1740" y="163" type="line"/>
      <point x="1740" y="163"/>
      <point x="1740" y="130"/>
      <point x="1740" y="130" type="curve"/>
      <point x="1740" y="130"/>
      <point x="1713" y="91"/>
      <point x="1656" y="91" type="curve" smooth="yes"/>
      <point x="1618" y="91"/>
      <point x="1576" y="106"/>
      <point x="1576" y="146" type="curve" smooth="yes"/>
      <point x="1576" y="186"/>
      <point x="1602" y="207"/>
      <point x="1651" y="207" type="curve" smooth="yes"/>
      <point x="1713" y="207"/>
      <point x="1740" y="163"/>
      <point x="1740" y="163" type="curve"/>
    </contour>
  </outline>
</glyph>
